<?xml version="1.0" encoding="utf-8"?>
<!-- Generator: Adobe Illustrator 26.5.0, SVG Export Plug-In . SVG Version: 6.00 Build 0)  -->
<svg version="1.1" id="レイヤー_1" xmlns="http://www.w3.org/2000/svg" xmlns:xlink="http://www.w3.org/1999/xlink" x="0px"
	 y="0px" width="256px" height="256px" viewBox="0 0 640 640" style="enable-background:new 0 0 640 640;" xml:space="preserve">
<style type="text/css">
	.st0{fill:#FFFFFF;}
	.st1{fill:none;stroke:#000000;stroke-width:10;stroke-miterlimit:10;}
</style>
<g>
	<rect x="50.5" y="30.5" class="st0" width="399" height="99"/>
	<path d="M449,31v98H51V31H449 M450,30H50v100h400V30L450,30z"/>
</g>
<g>
	<rect x="50.5" y="150.5" class="st0" width="399" height="99"/>
	<path d="M449,151v98H51v-98H449 M450,150H50v100h400V150L450,150z"/>
</g>
<g>
	<rect x="50.5" y="270.5" class="st0" width="399" height="99"/>
	<path d="M449,271v98H51v-98H449 M450,270H50v100h400V270L450,270z"/>
</g>
<g>
	<rect x="50.5" y="390.5" class="st0" width="399" height="99"/>
	<path d="M449,391v98H51v-98H449 M450,390H50v100h400V390L450,390z"/>
</g>
<g>
	<rect x="50.5" y="510.5" class="st0" width="399" height="99"/>
	<path d="M449,511v98H51v-98H449 M450,510H50v100h400V510L450,510z"/>
</g>
<g>
	<path d="M139.2,65.6c-0.1,0.1-0.3,0.3-0.5,0.3c-1.9,4.6-5,8.6-8.5,11.5c-0.5-0.5-1.5-1.1-2.2-1.5c3.3-2.4,6-5.9,7.2-8.9h-25.8v-2.4
		h27.1l0.4-0.2L139.2,65.6z M125.1,72.2c0,0.3-0.4,0.5-0.8,0.6c-1,8.5-4,16.6-11.4,20.9c-0.5-0.4-1.4-1.3-2.1-1.7
		c7.3-4,10-11.6,10.8-20.2L125.1,72.2z"/>
	<path d="M146.6,66.7h22.9l0.2-0.1l2.4,1.9c-0.1,0.1-0.2,0.3-0.4,0.3c-2.9,13.5-9.2,20.6-20.2,24.8c-0.4-0.6-1.1-1.6-1.6-2.1
		c10.5-3.9,16.5-10.5,18.9-22.2h-22.2V66.7z M174,60.3c2.2,0,3.9,1.8,3.9,4c0,2.2-1.8,3.9-3.9,3.9c-2.2,0-4-1.8-4-3.9
		C170,62,171.9,60.3,174,60.3z M176.7,64.2c0-1.5-1.2-2.8-2.7-2.8s-2.8,1.2-2.8,2.8c0,1.5,1.3,2.8,2.8,2.8
		C175.6,67,176.7,65.7,176.7,64.2z"/>
	<path d="M186.3,82.3V64.8l3.4,0.2c0,0.3-0.3,0.6-0.9,0.6v16.6H186.3z M206.3,63.4c0,0.4-0.3,0.5-0.9,0.6v11.4
		c0,7.6-2.6,14.5-12.9,18.5c-0.4-0.5-1.3-1.5-1.9-1.9c10-3.7,12.2-9.9,12.2-16.5V63.2L206.3,63.4z"/>
	<path d="M246.8,70.9v2.4h-8.9c-0.1,0.2-0.3,0.4-0.6,0.4c-1.1,8.4-4.5,15.6-12.1,20c-0.6-0.5-1.5-1.2-2.2-1.6
		c7.4-4,10.8-10.8,11.7-18.8h-10c-1.7,3-3.7,5.6-5.7,7.4c-0.5-0.4-1.5-0.9-2.3-1.3c3.9-3.3,8.1-10.4,9.8-17.1l3.5,0.8
		c-0.1,0.3-0.4,0.5-1,0.5c-0.8,2.2-2,5-3.1,7.1H246.8z"/>
	<path d="M252.8,76.2h30.1v2.6h-28.7c-0.2,0.4-0.7,0.6-1.2,0.7L252.8,76.2z"/>
	<path d="M290.2,72.7c3.2,0.7,7.3,2.1,9.7,3.2l-1.1,2.3c-2.4-1.2-6.5-2.6-9.7-3.3L290.2,72.7z M292.4,90.3
		c11.7-3.9,19.7-10.2,24.5-20.9c0.5,0.5,1.7,1.2,2.2,1.6c-4.8,10.7-13.2,17.3-24.2,21.3c0.1,0.3-0.1,0.8-0.4,0.9L292.4,90.3z
		 M294.2,63.8c3.2,0.9,7.2,2.3,9.6,3.5l-1.2,2.2c-2.6-1.3-6.3-2.7-9.5-3.6L294.2,63.8z"/>
	<path d="M348.7,71.8v21.9h-2.2v-1.6h-16.2v-2h16.2v-7.3h-14.7v-2h14.7v-7h-15.3v-2H348.7z"/>
	<path d="M363.6,65.3c3.7,1.2,8.1,3.1,10.7,4.9l-1.4,2.3c-2.6-1.8-6.8-3.7-10.5-5L363.6,65.3z M363.4,90.2
		c12.8-4,21.3-11.1,25.6-21.1c0.8,0.6,1.6,1.1,2.3,1.5c-4.5,9.9-13.3,17.5-25.5,21.6c0,0.3-0.3,0.7-0.5,0.8L363.4,90.2z"/>
</g>
<g>
	<path d="M182.2,192.7c3.2,0.7,7.3,2.1,9.7,3.2l-1.1,2.3c-2.4-1.2-6.5-2.6-9.7-3.3L182.2,192.7z M184.4,210.3
		c11.7-3.9,19.7-10.2,24.5-20.9c0.5,0.5,1.7,1.2,2.2,1.6c-4.8,10.7-13.2,17.3-24.2,21.3c0.1,0.3-0.1,0.8-0.4,0.9L184.4,210.3z
		 M186.2,183.8c3.2,0.9,7.2,2.3,9.6,3.5l-1.2,2.2c-2.6-1.3-6.3-2.7-9.5-3.6L186.2,183.8z"/>
	<path d="M241.7,186.1c-0.1,0.2-0.3,0.3-0.5,0.4c-1.9,4.6-4.2,8.5-7.2,12.4c3.9,3.1,9.8,8.5,13.2,12.2L245,213
		c-3.2-3.7-9-9.1-12.6-12.1c-3.2,3.9-8.6,9.1-13.9,12.1c-0.4-0.5-1.3-1.4-1.9-1.9c10-5.5,17.9-15.7,21.1-23.5h-17.7v-2.4h19.1
		l0.5-0.2L241.7,186.1z"/>
	<path d="M282.5,196.5h-12.2l0.6,0.2c-0.1,0.2-0.3,0.4-0.7,0.4c-1,6.7-3.4,12.7-11.1,16.5c-0.4-0.5-1.3-1.3-1.9-1.8
		c7.5-3.6,9.6-8.6,10.4-15.3h-14v-2.4h28.9V196.5z M278.9,186.4h-22.1v-2.4h22.1V186.4z"/>
	<path d="M317.3,212.8c-0.5-1.2-1.2-2.5-1.9-3.8c-7.5,0.8-19.8,1.5-25.3,1.8c-0.1,0.4-0.4,0.6-0.7,0.7l-1-3.2c1.1,0,2.4-0.1,3.8-0.1
		c2.4-6.9,5.8-17.7,7.8-24.9l3.5,0.9c-0.1,0.3-0.5,0.5-1,0.5c-2,6.6-5.1,16.3-7.6,23.3c6-0.3,14.5-0.9,19.3-1.3
		c-1.9-3.1-4.2-6.4-6.4-8.8l2.2-1.2c3.8,4.1,8.1,11,9.9,14.9L317.3,212.8z"/>
</g>
<g>
	<path d="M147.7,307.5h24.6v2.4h-11.1v17.5h13.7v2.4h-29.7v-2.4h13.5V310h-10.9V307.5z"/>
	<path d="M183.6,305.3c3.7,1.2,8.1,3.1,10.7,4.9l-1.4,2.3c-2.6-1.8-6.8-3.7-10.5-5L183.6,305.3z M183.4,330.2
		c12.8-4,21.3-11.1,25.6-21.1c0.8,0.6,1.6,1.1,2.3,1.5c-4.5,9.9-13.3,17.5-25.5,21.6c0,0.3-0.3,0.7-0.5,0.8L183.4,330.2z"/>
	<path d="M246.5,316.5h-12.2l0.6,0.2c-0.1,0.2-0.3,0.4-0.7,0.4c-1,6.7-3.4,12.7-11.1,16.5c-0.4-0.5-1.3-1.3-1.9-1.8
		c7.5-3.6,9.6-8.6,10.4-15.3h-14v-2.4h28.9V316.5z M242.9,306.4h-22.1v-2.4h22.1V306.4z"/>
	<path d="M278.8,310.8c-0.1,0.2-0.4,0.3-0.6,0.3c-0.2,0-0.3,0-0.5-0.1c-2.3,2.3-5.3,4.8-7.9,6.7c0.5,0.2,0.7,0.3,0.8,0.3
		c-0.1,0.1-0.3,0.3-0.6,0.4V334h-2.2v-15c-3.1,2.2-8,5-11.8,6.9c-0.3-0.4-0.9-1.3-1.3-1.7c6.2-2.8,15.5-8.3,21.7-15.1L278.8,310.8z"
		/>
	<path d="M318.5,316.5h-12.2l0.6,0.2c-0.1,0.2-0.3,0.4-0.7,0.4c-1,6.7-3.4,12.7-11.1,16.5c-0.4-0.5-1.3-1.3-1.9-1.8
		c7.5-3.6,9.6-8.6,10.4-15.3h-14v-2.4h28.9V316.5z M314.9,306.4h-22.1v-2.4h22.1V306.4z"/>
	<path d="M350.8,310.8c-0.1,0.2-0.4,0.3-0.6,0.3c-0.2,0-0.3,0-0.5-0.1c-2.3,2.3-5.3,4.8-7.9,6.7c0.5,0.2,0.7,0.3,0.8,0.3
		c-0.1,0.1-0.3,0.3-0.6,0.4V334h-2.2v-15c-3.1,2.2-8,5-11.8,6.9c-0.3-0.4-0.9-1.3-1.3-1.7c6.2-2.8,15.5-8.3,21.7-15.1L350.8,310.8z"
		/>
</g>
<g>
	<path d="M154.2,427.4v24.4h-2.6v-2h-22.7v-2.4h22.7v-17.6h-22.3v-2.4H154.2z"/>
	<path d="M165.6,425.3c3.7,1.2,8.1,3.1,10.7,4.9l-1.4,2.3c-2.6-1.8-6.8-3.7-10.5-5L165.6,425.3z M165.4,450.2
		c12.8-4,21.3-11.1,25.6-21.1c0.8,0.6,1.6,1.1,2.3,1.5c-4.5,9.9-13.3,17.5-25.5,21.6c0,0.3-0.3,0.7-0.5,0.8L165.4,450.2z"/>
	<path d="M207.6,438.3c-1.6,4.2-4,7.9-6.8,10.6l-2.1-1.4c2.7-2.5,5-5.9,6.5-10.2L207.6,438.3z M215.3,432.8v16.9
		c0,3.9-2.8,3.9-8.6,3.9c-0.1-0.6-0.4-1.7-0.8-2.4c1,0,2.2,0,3.2,0h2.1c1,0,1.5-0.6,1.5-1.5v-16.9h-12.2v-2.4h12.2v-7.6l3.4,0.2
		c0,0.4-0.3,0.6-0.8,0.7v6.7h12.2v2.4H215.3z M221.7,437.2c2.6,2.9,5.7,7.2,7.6,10.5L227,449c-1.8-3.3-4.9-7.9-7.3-10.7L221.7,437.2
		z M226.4,420.6c2.2,0,4,1.8,4,4c0,2.2-1.8,4-4,4c-2.3,0-4.1-1.8-4.1-4C222.3,422.3,224.2,420.6,226.4,420.6z M229.2,424.6
		c0-1.6-1.3-2.9-2.8-2.9c-1.6,0-2.9,1.3-2.9,2.9c0,1.5,1.3,2.8,2.9,2.8C228,427.4,229.2,426.1,229.2,424.6z"/>
	<path d="M234.8,436.2h30.1v2.6h-28.7c-0.2,0.4-0.7,0.6-1.2,0.7L234.8,436.2z"/>
	<path d="M296.8,430.8c-0.1,0.2-0.3,0.3-0.6,0.3c-2.3,2.9-5.4,6-8.7,8.5l0.6,0.1c-0.1,0.2-0.3,0.5-0.8,0.5V454h-2.6v-12.5
		c-3.7,2.5-8.4,5.1-12.9,6.8c-0.2-0.3-1.4-1.7-1.7-2c8.7-3.2,17-8.6,21.9-14.4h-18.2v-2.3h20.6l0.4-0.3L296.8,430.8z M290.8,428
		c-3.1-1.7-8-3.3-11.8-4.4l1.2-2.1c3.9,0.9,8.7,2.7,12,4.2L290.8,428z M291.1,439.5c3.6,1.9,7.9,4.6,10.5,6.6l-1.8,1.9
		c-2.4-2-6.9-4.9-10.3-6.8L291.1,439.5z"/>
	<path d="M309.6,425.3c3.7,1.2,8.1,3.1,10.7,4.9l-1.4,2.3c-2.6-1.8-6.8-3.7-10.5-5L309.6,425.3z M309.4,450.2
		c12.8-4,21.3-11.1,25.6-21.1c0.8,0.6,1.6,1.1,2.3,1.5c-4.5,9.9-13.3,17.5-25.5,21.6c0,0.3-0.3,0.7-0.5,0.8L309.4,450.2z"/>
	<path d="M368.1,441.5c-3.7-2-8.7-4.3-12.6-5.9v18h-2.7v-31.3l3.6,0.2c0,0.4-0.3,0.6-0.9,0.8v10.5l0.5-0.8c4.2,1.5,9.8,4,13.5,6
		L368.1,441.5z"/>
</g>
<g>
	<path d="M228.4,556.5h-11.9l0.6,0.2c0,0.2-0.3,0.4-0.7,0.4c-0.9,6.5-3.9,13-11.1,16.6c-0.4-0.5-1.3-1.3-1.9-1.8
		c7.1-3.5,9.6-9,10.4-15.5H200v-2.4h28.4V556.5z M223.1,546.7h-20v-2.4h20V546.7z M223.5,541.4c1.5,1.5,3.1,4,4,5.7l-1.4,1
		c-0.8-1.7-2.5-4.2-3.9-5.7L223.5,541.4z M227.8,540.2c1.5,1.5,3.2,4,4.1,5.7l-1.5,0.9c-0.8-1.6-2.6-4.1-4-5.6L227.8,540.2z"/>
	<path d="M234.8,556.2h30.1v2.6h-28.7c-0.2,0.4-0.7,0.6-1.2,0.7L234.8,556.2z"/>
	<path d="M297.9,548.4c0,0.2-0.2,0.3-0.4,0.4c-1.3,4.5-3.1,8.6-5.3,11.9c1.5,0.9,3.3,2,4.6,3l-1.5,2.4c-1.3-1-3.1-2.2-4.6-3.1
		c-3.3,4.6-7.6,8.3-13,10.9c-0.4-0.6-1.3-1.5-2-1.9c5.3-2.4,9.5-6.1,12.7-10.4c-2.7-1.5-5.3-2.7-8-3.7l1.4-2
		c2.6,0.9,5.3,2.2,8.1,3.6c1.9-3,3.3-6.1,4.4-9.5h-12.2c-2.2,3.7-5.1,7.3-8.3,9.9c-0.5-0.4-1.4-1.2-2.1-1.6
		c4.7-3.6,9.2-10.1,11.3-16.2l3.4,0.8c-0.1,0.4-0.5,0.5-1,0.5c-0.5,1.2-1.3,3-2,4.3h12l0.5-0.1L297.9,548.4z"/>
</g>
<g>
	<g>
		<line class="st1" x1="510" y1="40" x2="510" y2="564.1"/>
		<g>
			<polygon points="485.1,556.8 510,600 534.9,556.8 			"/>
		</g>
	</g>
</g>
<g>
	<path d="M553.8,250.5c-0.1,0.3-0.4,0.4-0.8,0.4c-0.9,2.4-1.9,4.8-3,7.1l0.8,0.3c0,0.2-0.3,0.4-0.7,0.5v24.1h-2.3v-20.7
		c-1.3,2.2-2.7,4.2-4.1,5.9c-0.3-0.6-0.9-1.7-1.3-2.3c3.3-3.7,6.6-10,8.6-16.2L553.8,250.5z M565.9,258.4c0.5,3.3,1.3,6.4,2.2,9.3
		c2.3-1.7,5-3.9,6.6-5.7l2.2,2c-0.1,0.1-0.3,0.2-0.5,0.2c-0.1,0-0.2,0-0.3,0c-1.8,1.6-4.9,3.9-7.3,5.4c2,4.8,4.8,8.7,8.6,10.7
		c-0.6,0.5-1.4,1.4-1.8,2.1c-6.6-3.9-9.9-12.2-11.7-22.5c-1.4,2.3-3,4.6-4.8,6.6l1.2,0.3c0,0.3-0.3,0.4-0.7,0.5v11.5
		c2.7-0.5,5.7-1.1,8.6-1.7l0.2,2c-5.1,1.2-10.4,2.3-13.8,3c-0.1,0.3-0.2,0.5-0.5,0.6L553,280l4.3-0.8v-10.7c-1.5,1.5-3.2,2.9-4.9,4
		c-0.4-0.5-1.1-1.4-1.5-1.9c4.3-2.7,8.6-7.2,11.3-12.2h-9.9v-2.3h11v-6.4l3.1,0.2c0,0.3-0.2,0.4-0.7,0.5v5.7h11.2v2.3H565.9z"/>
	<path d="M575.9,292.4h-19.9c-1.2,2.8-2.7,5.5-4.5,8.1l0.4,0.1c-0.1,0.3-0.3,0.4-0.7,0.5v17.7h-2.4v-14.9c-1.4,1.5-2.8,2.9-4.5,4.1
		c-0.3-0.6-0.9-1.7-1.3-2.2c2.2-1.6,4.1-3.5,5.8-5.7v-0.3l0.2,0c1.7-2.3,3.2-4.8,4.4-7.5h-9.3v-2.3h10.3c0.6-1.6,1.2-3.2,1.6-4.8
		l3.1,0.8c-0.1,0.3-0.4,0.4-0.8,0.4c-0.4,1.2-0.8,2.4-1.2,3.6h18.9V292.4z M576.7,306.2v2.3h-9.9v7.2c0,1.5-0.3,2.2-1.5,2.6
		c-1.2,0.4-3.2,0.4-6.4,0.4c-0.1-0.7-0.4-1.7-0.8-2.3c1.3,0,2.5,0.1,3.4,0.1c2.7,0,2.8,0,2.8-0.7v-7.2h-10.4v-2.3h10.4v-3.5l0.9,0
		c1.7-1,3.5-2.4,4.9-3.9h-13v-2.2h15.3l0.4-0.1l1.9,1.2c-0.1,0.2-0.3,0.3-0.5,0.3c-1.8,2-4.8,4.4-7.4,6v2.1H576.7z"/>
	<path d="M558.2,334.7h-10.8v20.1h-2.4v-31.9h13.2V334.7z M555.9,324.8h-8.5v3.1h8.5V324.8z M547.4,332.8h8.5v-3.2h-8.5V332.8z
		 M575.1,322.9v28.8c0,2.8-1.3,3-6,3c-0.1-0.6-0.4-1.6-0.7-2.3c-0.1,0.1-0.2,0.3-0.3,0.4c-3.7-1-6.4-3.1-8.1-6
		c-1,2.2-3.3,4.4-8.6,6.1c-0.3-0.5-0.9-1.2-1.4-1.6c5.4-1.5,7.4-3.7,8.1-5.7h-7.8v-1.9h8.2v-3.1H551v-1.9h4.1c-0.4-1-1-2.2-1.7-3.1
		l1.9-0.6c0.9,1.1,1.8,2.6,2.1,3.7l-0.1,0h4.9c0.7-1.1,1.5-2.8,2-3.9l2.6,1c-0.1,0.2-0.4,0.3-0.7,0.3c-0.4,0.7-1.1,1.8-1.7,2.6h4.6
		v1.9h-8.1v3.1h8.8v1.9h-8c1.4,2.7,4.2,4.6,7.9,5.4c-0.4,0.3-0.8,0.8-1.1,1.3c1,0,1.9,0.1,2.6,0.1c1.5,0,1.7,0,1.7-0.7v-17h-11.1
		v-11.8H575.1z M572.7,324.8H564v3.1h8.8V324.8z M564,332.8h8.8v-3.3H564V332.8z"/>
	<path d="M547.8,370.1c-1.3,2.2-2.7,4.2-4.1,5.9c-0.3-0.6-0.9-1.7-1.3-2.3c3.3-3.7,6.6-10,8.6-16.2l2.8,0.9
		c-0.1,0.3-0.4,0.4-0.8,0.4c-0.9,2.4-1.9,4.8-3,7.1l0.8,0.3c0,0.2-0.3,0.4-0.7,0.5v24.1h-2.3V370.1z M560.1,381.5
		c-0.1,0.2-0.3,0.4-0.7,0.3c-1.2,2.3-3.5,5.4-5.7,7.4c-0.4-0.4-1.3-1-1.8-1.3c2.1-1.9,4.3-4.9,5.4-7.3L560.1,381.5z M570.8,370.8
		c2.6,2.4,5.3,5.9,6.5,8.2l-2.1,1.1c-0.4-0.8-0.9-1.6-1.5-2.5l-8.2,0.3v12.8h-2.4V378c-3.7,0.1-7,0.3-9.6,0.3c0,0.3-0.3,0.4-0.5,0.5
		l-0.8-2.8l6.2-0.1c0.9-0.8,1.8-1.6,2.7-2.5c-1.8-1.8-4.9-4.2-7.5-5.8l1.4-1.5c0.8,0.5,1.6,1,2.4,1.5c1.3-1.5,2.8-3.5,3.9-5.1
		c-2.4,0.3-4.9,0.5-7.3,0.6c-0.1-0.6-0.4-1.4-0.7-2c6.9-0.6,15.2-1.6,19.7-2.9l1.9,2.1c-0.1,0.1-0.2,0.1-0.4,0.1c-0.1,0-0.2,0-0.3,0
		c-2.6,0.7-6.2,1.3-10,1.8l0.7,0.4c-0.1,0.2-0.4,0.3-0.8,0.3c-1.3,1.7-3.3,4.2-5,6c1.4,1,2.7,2.1,3.6,3c2.5-2.5,4.9-5.3,6.6-7.6
		l2.6,1.4c-0.1,0.2-0.4,0.3-0.8,0.3c-2.5,3.1-6.3,7.1-9.6,10.1c3.5-0.1,7.2-0.1,10.9-0.3c-1.1-1.4-2.3-2.7-3.4-3.9L570.8,370.8z
		 M571,380.6c2.2,2.2,4.5,5.3,5.5,7.4c-1,0.6-1.5,0.9-2,1.1c-1-2.1-3.3-5.3-5.4-7.5C570.7,380.8,570.9,380.7,571,380.6z"/>
</g>
<g>
</g>
<g>
</g>
<g>
</g>
<g>
</g>
<g>
</g>
<g>
</g>
<g>
</g>
<g>
</g>
<g>
</g>
<g>
</g>
<g>
</g>
<g>
</g>
<g>
</g>
<g>
</g>
<g>
</g>
<g>
</g>
</svg>
