<?xml version="1.0" encoding="UTF-8" standalone="no"?><svg xmlns="http://www.w3.org/2000/svg" xmlns:xlink="http://www.w3.org/1999/xlink" contentStyleType="text/css" height="859px" preserveAspectRatio="none" style="width:1618px;height:859px;background:#FFFFFF;" version="1.1" viewBox="0 0 1618 859" width="1618px" zoomAndPan="magnify"><defs/><g><!--MD5=[d64883541e3d62e3241c4d12decf100d]
cluster Application--><g id="cluster_Application"><path d="M177.5,6 L256.5,6 A3.75,3.75 0 0 1 259,8.5 L266,29.6094 L484.5,29.6094 A2.5,2.5 0 0 1 487,32.1094 L487,191.5 A2.5,2.5 0 0 1 484.5,194 L177.5,194 A2.5,2.5 0 0 1 175,191.5 L175,8.5 A2.5,2.5 0 0 1 177.5,6 " fill="none" style="stroke:#000000;stroke-width:1.5;"/><line style="stroke:#000000;stroke-width:1.5;" x1="175" x2="266" y1="29.6094" y2="29.6094"/><text fill="#000000" font-family="sans-serif" font-size="14" font-weight="bold" lengthAdjust="spacing" textLength="78" x="179" y="22.5332">Application</text></g><!--MD5=[99b31deea5d7419a569cd5090bf83263]
cluster System--><g id="cluster_System"><path d="M8.5,218 L59.5,218 A3.75,3.75 0 0 1 62,220.5 L69,241.6094 L732.5,241.6094 A2.5,2.5 0 0 1 735,244.1094 L735,741.5 A2.5,2.5 0 0 1 732.5,744 L8.5,744 A2.5,2.5 0 0 1 6,741.5 L6,220.5 A2.5,2.5 0 0 1 8.5,218 " fill="none" style="stroke:#000000;stroke-width:1.5;"/><line style="stroke:#000000;stroke-width:1.5;" x1="6" x2="69" y1="241.6094" y2="241.6094"/><text fill="#000000" font-family="sans-serif" font-size="14" font-weight="bold" lengthAdjust="spacing" textLength="50" x="10" y="234.5332">System</text></g><!--MD5=[fcfdc41e9e8661e0b08e1357fb9c5ed1]
cluster Entity--><g id="cluster_Entity"><path d="M795.5,396 L835.5,396 A3.75,3.75 0 0 1 838,398.5 L845,419.6094 L1340.5,419.6094 A2.5,2.5 0 0 1 1343,422.1094 L1343,493.5 A2.5,2.5 0 0 1 1340.5,496 L795.5,496 A2.5,2.5 0 0 1 793,493.5 L793,398.5 A2.5,2.5 0 0 1 795.5,396 " fill="none" style="stroke:#000000;stroke-width:1.5;"/><line style="stroke:#000000;stroke-width:1.5;" x1="793" x2="845" y1="419.6094" y2="419.6094"/><text fill="#000000" font-family="sans-serif" font-size="14" font-weight="bold" lengthAdjust="spacing" textLength="39" x="797" y="412.5332">Entity</text></g><!--MD5=[b83664a7e18115e1a5047ee67f7a3675]
cluster Component--><g id="cluster_Component"><path d="M761.5,520 L843.5,520 A3.75,3.75 0 0 1 846,522.5 L853,543.6094 L1608.5,543.6094 A2.5,2.5 0 0 1 1611,546.1094 L1611,617.5 A2.5,2.5 0 0 1 1608.5,620 L761.5,620 A2.5,2.5 0 0 1 759,617.5 L759,522.5 A2.5,2.5 0 0 1 761.5,520 " fill="none" style="stroke:#000000;stroke-width:1.5;"/><line style="stroke:#000000;stroke-width:1.5;" x1="759" x2="853" y1="543.6094" y2="543.6094"/><text fill="#000000" font-family="sans-serif" font-size="14" font-weight="bold" lengthAdjust="spacing" textLength="81" x="763" y="536.5332">Component</text></g><!--MD5=[f21b1f164e99c6b37934f23ad048ad54]
cluster Data--><g id="cluster_Data"><path d="M1051.5,644 L1083.5,644 A3.75,3.75 0 0 1 1086,646.5 L1093,667.6094 L1315.5,667.6094 A2.5,2.5 0 0 1 1318,670.1094 L1318,849.5 A2.5,2.5 0 0 1 1315.5,852 L1051.5,852 A2.5,2.5 0 0 1 1049,849.5 L1049,646.5 A2.5,2.5 0 0 1 1051.5,644 " fill="none" style="stroke:#000000;stroke-width:1.5;"/><line style="stroke:#000000;stroke-width:1.5;" x1="1049" x2="1093" y1="667.6094" y2="667.6094"/><text fill="#000000" font-family="sans-serif" font-size="14" font-weight="bold" lengthAdjust="spacing" textLength="31" x="1053" y="660.5332">Data</text></g><!--MD5=[c02dc7f9e7f74b101dc2fdf90ba7f9ca]
class GameMain--><g id="elem_GameMain"><rect codeLine="2" fill="#F1F1F1" height="136.0469" id="GameMain" rx="2.5" ry="2.5" style="stroke:#181818;stroke-width:0.5;" width="280" x="191" y="42"/><ellipse cx="292.75" cy="58" fill="#ADD1B2" rx="11" ry="11" style="stroke:#181818;stroke-width:1.0;"/><path d="M295.4531,63.4375 Q294.5313,64.3594 292.2656,64.3594 Q291,64.3594 290.0781,63.4375 Q288.4219,61.7813 288.4219,58.25 Q288.4219,54.1406 290.2031,52.3438 Q291.1406,51.4219 292.3281,51.4219 Q294.5938,51.4219 295.3281,52.1406 Q296.7188,53.5469 296.6563,55.9375 L294.1875,55.9375 Q294.125,53.8125 293.3906,53.0781 Q293,52.6719 292.3281,52.6719 Q292.3281,52.6719 292.2656,53.1406 Q290.9375,54.4688 290.9375,58.125 Q290.9375,61.3125 292.0781,62.4375 Q292.6094,62.9688 292.6094,62.9688 Q292.8594,62.9688 293.3906,62.4375 Q294.0625,61.7813 294.125,59.3906 L296.7188,59.3906 Q296.5156,62.375 295.4531,63.4375 Z " fill="#000000"/><text fill="#000000" font-family="sans-serif" font-size="14" lengthAdjust="spacing" textLength="68" x="313.25" y="63.7285">GameMain</text><line style="stroke:#181818;stroke-width:0.5;" x1="192" x2="470" y1="74" y2="74"/><rect fill="none" height="6" style="stroke:#C82930;stroke-width:1.0;" width="6" x="199" y="85.3047"/><text fill="#000000" font-family="sans-serif" font-size="14" lengthAdjust="spacing" textLength="151" x="211" y="92.5332">GameState _gameState</text><rect fill="none" height="6" style="stroke:#C82930;stroke-width:1.0;" width="6" x="199" y="102.9141"/><text fill="#000000" font-family="sans-serif" font-size="14" lengthAdjust="spacing" textLength="157" x="211" y="110.1426">GameEvent _gameEvent</text><rect fill="none" height="6" style="stroke:#C82930;stroke-width:1.0;" width="6" x="199" y="120.5234"/><text fill="#000000" font-family="sans-serif" font-size="14" lengthAdjust="spacing" textLength="194" x="211" y="127.752">List&lt;BaseSystem&gt; _systemList</text><rect fill="none" height="6" style="stroke:#C82930;stroke-width:1.0;" width="6" x="199" y="138.1328"/><text fill="#000000" font-family="sans-serif" font-size="14" lengthAdjust="spacing" textLength="254" x="211" y="145.3613">List&lt;IPreUpdate&gt; _preUpdateSystemList</text><rect fill="none" height="6" style="stroke:#C82930;stroke-width:1.0;" width="6" x="199" y="155.7422"/><text fill="#000000" font-family="sans-serif" font-size="14" lengthAdjust="spacing" textLength="246" x="211" y="162.9707">List&lt;IOnUpdate&gt; _onUpdateSystemList</text><line style="stroke:#181818;stroke-width:0.5;" x1="192" x2="470" y1="170.0469" y2="170.0469"/></g><!--MD5=[f7b52a8868d2f50bf08b10db99fef024]
class BaseSystem--><g id="elem_BaseSystem"><rect codeLine="17" fill="#F1F1F1" height="118.4375" id="BaseSystem" rx="2.5" ry="2.5" style="stroke:#181818;stroke-width:0.5;" width="207" x="418.5" y="254"/><ellipse cx="478.75" cy="270" fill="#A9DCDF" rx="11" ry="11" style="stroke:#181818;stroke-width:1.0;"/><path d="M476.6094,275.8594 L474.0156,275.8594 L477.3438,262.9219 L479.6719,262.9219 L482.9844,275.8594 L480.3906,275.8594 L479.4688,272.0781 L477.5469,272.0781 L476.6094,275.8594 Z M478.0625,266.4375 L478.0625,266.4375 L477.875,270.8125 L479.125,270.8125 L478.0625,266.4375 Z " fill="#000000"/><text fill="#000000" font-family="sans-serif" font-size="14" font-style="italic" lengthAdjust="spacing" textLength="78" x="499.25" y="275.7285">BaseSystem</text><line style="stroke:#181818;stroke-width:0.5;" x1="419.5" x2="624.5" y1="286" y2="286"/><polygon fill="none" points="429.5,295.3047,433.5,299.3047,429.5,303.3047,425.5,299.3047" style="stroke:#B38D22;stroke-width:1.0;"/><text fill="#000000" font-family="sans-serif" font-size="14" lengthAdjust="spacing" textLength="151" x="438.5" y="304.5332">GameState _gameState</text><polygon fill="none" points="429.5,312.9141,433.5,316.9141,429.5,320.9141,425.5,316.9141" style="stroke:#B38D22;stroke-width:1.0;"/><text fill="#000000" font-family="sans-serif" font-size="14" lengthAdjust="spacing" textLength="157" x="438.5" y="322.1426">GameEvent _gameEvent</text><line style="stroke:#181818;stroke-width:0.5;" x1="419.5" x2="624.5" y1="329.2188" y2="329.2188"/><ellipse cx="429.5" cy="343.5234" fill="#84BE84" rx="3" ry="3" style="stroke:#038048;stroke-width:1.0;"/><text fill="#000000" font-family="sans-serif" font-size="14" lengthAdjust="spacing" textLength="181" x="438.5" y="347.752">Init(GameState, GameEvent)</text><ellipse cx="429.5" cy="361.1328" fill="#84BE84" rx="3" ry="3" style="stroke:#038048;stroke-width:1.0;"/><text fill="#000000" font-family="sans-serif" font-size="14" lengthAdjust="spacing" textLength="67" x="438.5" y="365.3613">SetEvent()</text></g><!--MD5=[bc33ad1f434df6051972ce2278773885]
class IPreUpdate--><g id="elem_IPreUpdate"><rect codeLine="23" fill="#F1F1F1" height="65.6094" id="IPreUpdate" rx="2.5" ry="2.5" style="stroke:#181818;stroke-width:0.5;" width="104" x="279" y="280"/><ellipse cx="294" cy="296" fill="#B4A7E5" rx="11" ry="11" style="stroke:#181818;stroke-width:1.0;"/><path d="M294.9844,300.9063 L295.7188,300.9063 L295.7188,302.3594 L291.7188,302.3594 L291.7188,300.9063 L292.4531,300.9063 L292.4531,290.875 L291.7188,290.875 L291.7188,289.4219 L295.7188,289.4219 L295.7188,290.875 L294.9844,290.875 L294.9844,300.9063 Z " fill="#000000"/><text fill="#000000" font-family="sans-serif" font-size="14" font-style="italic" lengthAdjust="spacing" textLength="72" x="308" y="301.7285">IPreUpdate</text><line style="stroke:#181818;stroke-width:0.5;" x1="280" x2="382" y1="312" y2="312"/><line style="stroke:#181818;stroke-width:0.5;" x1="280" x2="382" y1="320" y2="320"/><ellipse cx="290" cy="334.3047" fill="#84BE84" rx="3" ry="3" style="stroke:#038048;stroke-width:1.0;"/><text fill="#000000" font-family="sans-serif" font-size="14" lengthAdjust="spacing" textLength="77" x="299" y="338.5332">PreUpdate()</text></g><!--MD5=[739d8065d10f5d475573c034e0923fb6]
class IOnUpdate--><g id="elem_IOnUpdate"><rect codeLine="26" fill="#F1F1F1" height="65.6094" id="IOnUpdate" rx="2.5" ry="2.5" style="stroke:#181818;stroke-width:0.5;" width="101" x="142.5" y="280"/><ellipse cx="157.5" cy="296" fill="#B4A7E5" rx="11" ry="11" style="stroke:#181818;stroke-width:1.0;"/><path d="M158.4844,300.9063 L159.2188,300.9063 L159.2188,302.3594 L155.2188,302.3594 L155.2188,300.9063 L155.9531,300.9063 L155.9531,290.875 L155.2188,290.875 L155.2188,289.4219 L159.2188,289.4219 L159.2188,290.875 L158.4844,290.875 L158.4844,300.9063 Z " fill="#000000"/><text fill="#000000" font-family="sans-serif" font-size="14" font-style="italic" lengthAdjust="spacing" textLength="69" x="171.5" y="301.7285">IOnUpdate</text><line style="stroke:#181818;stroke-width:0.5;" x1="143.5" x2="242.5" y1="312" y2="312"/><line style="stroke:#181818;stroke-width:0.5;" x1="143.5" x2="242.5" y1="320" y2="320"/><ellipse cx="153.5" cy="334.3047" fill="#84BE84" rx="3" ry="3" style="stroke:#038048;stroke-width:1.0;"/><text fill="#000000" font-family="sans-serif" font-size="14" lengthAdjust="spacing" textLength="74" x="162.5" y="338.5332">OnUpdate()</text></g><!--MD5=[b3623b33641110cc6022d0cdef9baf48]
class GameRule--><g id="elem_GameRule"><rect codeLine="29" fill="#F1F1F1" height="48" id="GameRule" rx="2.5" ry="2.5" style="stroke:#181818;stroke-width:0.5;" width="99" x="22.5" y="432"/><ellipse cx="37.5" cy="448" fill="#ADD1B2" rx="11" ry="11" style="stroke:#181818;stroke-width:1.0;"/><path d="M40.2031,453.4375 Q39.2813,454.3594 37.0156,454.3594 Q35.75,454.3594 34.8281,453.4375 Q33.1719,451.7813 33.1719,448.25 Q33.1719,444.1406 34.9531,442.3438 Q35.8906,441.4219 37.0781,441.4219 Q39.3438,441.4219 40.0781,442.1406 Q41.4688,443.5469 41.4063,445.9375 L38.9375,445.9375 Q38.875,443.8125 38.1406,443.0781 Q37.75,442.6719 37.0781,442.6719 Q37.0781,442.6719 37.0156,443.1406 Q35.6875,444.4688 35.6875,448.125 Q35.6875,451.3125 36.8281,452.4375 Q37.3594,452.9688 37.3594,452.9688 Q37.6094,452.9688 38.1406,452.4375 Q38.8125,451.7813 38.875,449.3906 L41.4688,449.3906 Q41.2656,452.375 40.2031,453.4375 Z " fill="#000000"/><text fill="#000000" font-family="sans-serif" font-size="14" lengthAdjust="spacing" textLength="67" x="51.5" y="453.7285">GameRule</text><line style="stroke:#181818;stroke-width:0.5;" x1="23.5" x2="120.5" y1="464" y2="464"/><line style="stroke:#181818;stroke-width:0.5;" x1="23.5" x2="120.5" y1="472" y2="472"/></g><!--MD5=[71116451581d4bcb9d949802d41e292f]
class InputSystem--><g id="elem_InputSystem"><rect codeLine="32" fill="#F1F1F1" height="48" id="InputSystem" rx="2.5" ry="2.5" style="stroke:#181818;stroke-width:0.5;" width="109" x="156.5" y="432"/><ellipse cx="171.5" cy="448" fill="#ADD1B2" rx="11" ry="11" style="stroke:#181818;stroke-width:1.0;"/><path d="M174.2031,453.4375 Q173.2813,454.3594 171.0156,454.3594 Q169.75,454.3594 168.8281,453.4375 Q167.1719,451.7813 167.1719,448.25 Q167.1719,444.1406 168.9531,442.3438 Q169.8906,441.4219 171.0781,441.4219 Q173.3438,441.4219 174.0781,442.1406 Q175.4688,443.5469 175.4063,445.9375 L172.9375,445.9375 Q172.875,443.8125 172.1406,443.0781 Q171.75,442.6719 171.0781,442.6719 Q171.0781,442.6719 171.0156,443.1406 Q169.6875,444.4688 169.6875,448.125 Q169.6875,451.3125 170.8281,452.4375 Q171.3594,452.9688 171.3594,452.9688 Q171.6094,452.9688 172.1406,452.4375 Q172.8125,451.7813 172.875,449.3906 L175.4688,449.3906 Q175.2656,452.375 174.2031,453.4375 Z " fill="#000000"/><text fill="#000000" font-family="sans-serif" font-size="14" lengthAdjust="spacing" textLength="77" x="185.5" y="453.7285">InputSystem</text><line style="stroke:#181818;stroke-width:0.5;" x1="157.5" x2="264.5" y1="464" y2="464"/><line style="stroke:#181818;stroke-width:0.5;" x1="157.5" x2="264.5" y1="472" y2="472"/></g><!--MD5=[7d756026569ff981039e47c5c1763e77]
class MoveSystem--><g id="elem_MoveSystem"><rect codeLine="35" fill="#F1F1F1" height="48" id="MoveSystem" rx="2.5" ry="2.5" style="stroke:#181818;stroke-width:0.5;" width="112" x="22" y="680"/><ellipse cx="37" cy="696" fill="#ADD1B2" rx="11" ry="11" style="stroke:#181818;stroke-width:1.0;"/><path d="M39.7031,701.4375 Q38.7813,702.3594 36.5156,702.3594 Q35.25,702.3594 34.3281,701.4375 Q32.6719,699.7813 32.6719,696.25 Q32.6719,692.1406 34.4531,690.3438 Q35.3906,689.4219 36.5781,689.4219 Q38.8438,689.4219 39.5781,690.1406 Q40.9688,691.5469 40.9063,693.9375 L38.4375,693.9375 Q38.375,691.8125 37.6406,691.0781 Q37.25,690.6719 36.5781,690.6719 Q36.5781,690.6719 36.5156,691.1406 Q35.1875,692.4688 35.1875,696.125 Q35.1875,699.3125 36.3281,700.4375 Q36.8594,700.9688 36.8594,700.9688 Q37.1094,700.9688 37.6406,700.4375 Q38.3125,699.7813 38.375,697.3906 L40.9688,697.3906 Q40.7656,700.375 39.7031,701.4375 Z " fill="#000000"/><text fill="#000000" font-family="sans-serif" font-size="14" lengthAdjust="spacing" textLength="80" x="51" y="701.7285">MoveSystem</text><line style="stroke:#181818;stroke-width:0.5;" x1="23" x2="133" y1="712" y2="712"/><line style="stroke:#181818;stroke-width:0.5;" x1="23" x2="133" y1="720" y2="720"/></g><!--MD5=[cbd74bbd22758c8dd89f6685da40beaf]
class CameraSystem--><g id="elem_CameraSystem"><rect codeLine="38" fill="#F1F1F1" height="48" id="CameraSystem" rx="2.5" ry="2.5" style="stroke:#181818;stroke-width:0.5;" width="128" x="301" y="432"/><ellipse cx="316" cy="448" fill="#ADD1B2" rx="11" ry="11" style="stroke:#181818;stroke-width:1.0;"/><path d="M318.7031,453.4375 Q317.7813,454.3594 315.5156,454.3594 Q314.25,454.3594 313.3281,453.4375 Q311.6719,451.7813 311.6719,448.25 Q311.6719,444.1406 313.4531,442.3438 Q314.3906,441.4219 315.5781,441.4219 Q317.8438,441.4219 318.5781,442.1406 Q319.9688,443.5469 319.9063,445.9375 L317.4375,445.9375 Q317.375,443.8125 316.6406,443.0781 Q316.25,442.6719 315.5781,442.6719 Q315.5781,442.6719 315.5156,443.1406 Q314.1875,444.4688 314.1875,448.125 Q314.1875,451.3125 315.3281,452.4375 Q315.8594,452.9688 315.8594,452.9688 Q316.1094,452.9688 316.6406,452.4375 Q317.3125,451.7813 317.375,449.3906 L319.9688,449.3906 Q319.7656,452.375 318.7031,453.4375 Z " fill="#000000"/><text fill="#000000" font-family="sans-serif" font-size="14" lengthAdjust="spacing" textLength="96" x="330" y="453.7285">CameraSystem</text><line style="stroke:#181818;stroke-width:0.5;" x1="302" x2="428" y1="464" y2="464"/><line style="stroke:#181818;stroke-width:0.5;" x1="302" x2="428" y1="472" y2="472"/></g><!--MD5=[c4667fea8fa534559d9f13c04ba2f173]
class UISystem--><g id="elem_UISystem"><rect codeLine="41" fill="#F1F1F1" height="48" id="UISystem" rx="2.5" ry="2.5" style="stroke:#181818;stroke-width:0.5;" width="90" x="177" y="556"/><ellipse cx="192" cy="572" fill="#ADD1B2" rx="11" ry="11" style="stroke:#181818;stroke-width:1.0;"/><path d="M194.7031,577.4375 Q193.7813,578.3594 191.5156,578.3594 Q190.25,578.3594 189.3281,577.4375 Q187.6719,575.7813 187.6719,572.25 Q187.6719,568.1406 189.4531,566.3438 Q190.3906,565.4219 191.5781,565.4219 Q193.8438,565.4219 194.5781,566.1406 Q195.9688,567.5469 195.9063,569.9375 L193.4375,569.9375 Q193.375,567.8125 192.6406,567.0781 Q192.25,566.6719 191.5781,566.6719 Q191.5781,566.6719 191.5156,567.1406 Q190.1875,568.4688 190.1875,572.125 Q190.1875,575.3125 191.3281,576.4375 Q191.8594,576.9688 191.8594,576.9688 Q192.1094,576.9688 192.6406,576.4375 Q193.3125,575.7813 193.375,573.3906 L195.9688,573.3906 Q195.7656,576.375 194.7031,577.4375 Z " fill="#000000"/><text fill="#000000" font-family="sans-serif" font-size="14" lengthAdjust="spacing" textLength="58" x="206" y="577.7285">UISystem</text><line style="stroke:#181818;stroke-width:0.5;" x1="178" x2="266" y1="588" y2="588"/><line style="stroke:#181818;stroke-width:0.5;" x1="178" x2="266" y1="596" y2="596"/></g><!--MD5=[4851dd3d08629a111d7dbfba5939115c]
class CleaningSystem--><g id="elem_CleaningSystem"><rect codeLine="44" fill="#F1F1F1" height="48" id="CleaningSystem" rx="2.5" ry="2.5" style="stroke:#181818;stroke-width:0.5;" width="134" x="302" y="556"/><ellipse cx="317" cy="572" fill="#ADD1B2" rx="11" ry="11" style="stroke:#181818;stroke-width:1.0;"/><path d="M319.7031,577.4375 Q318.7813,578.3594 316.5156,578.3594 Q315.25,578.3594 314.3281,577.4375 Q312.6719,575.7813 312.6719,572.25 Q312.6719,568.1406 314.4531,566.3438 Q315.3906,565.4219 316.5781,565.4219 Q318.8438,565.4219 319.5781,566.1406 Q320.9688,567.5469 320.9063,569.9375 L318.4375,569.9375 Q318.375,567.8125 317.6406,567.0781 Q317.25,566.6719 316.5781,566.6719 Q316.5781,566.6719 316.5156,567.1406 Q315.1875,568.4688 315.1875,572.125 Q315.1875,575.3125 316.3281,576.4375 Q316.8594,576.9688 316.8594,576.9688 Q317.1094,576.9688 317.6406,576.4375 Q318.3125,575.7813 318.375,573.3906 L320.9688,573.3906 Q320.7656,576.375 319.7031,577.4375 Z " fill="#000000"/><text fill="#000000" font-family="sans-serif" font-size="14" lengthAdjust="spacing" textLength="102" x="331" y="577.7285">CleaningSystem</text><line style="stroke:#181818;stroke-width:0.5;" x1="303" x2="435" y1="588" y2="588"/><line style="stroke:#181818;stroke-width:0.5;" x1="303" x2="435" y1="596" y2="596"/></g><!--MD5=[1a85f8498c267b1c04bb06990697e6c3]
class AISystem--><g id="elem_AISystem"><rect codeLine="47" fill="#F1F1F1" height="48" id="AISystem" rx="2.5" ry="2.5" style="stroke:#181818;stroke-width:0.5;" width="90" x="471" y="556"/><ellipse cx="486" cy="572" fill="#ADD1B2" rx="11" ry="11" style="stroke:#181818;stroke-width:1.0;"/><path d="M488.7031,577.4375 Q487.7813,578.3594 485.5156,578.3594 Q484.25,578.3594 483.3281,577.4375 Q481.6719,575.7813 481.6719,572.25 Q481.6719,568.1406 483.4531,566.3438 Q484.3906,565.4219 485.5781,565.4219 Q487.8438,565.4219 488.5781,566.1406 Q489.9688,567.5469 489.9063,569.9375 L487.4375,569.9375 Q487.375,567.8125 486.6406,567.0781 Q486.25,566.6719 485.5781,566.6719 Q485.5781,566.6719 485.5156,567.1406 Q484.1875,568.4688 484.1875,572.125 Q484.1875,575.3125 485.3281,576.4375 Q485.8594,576.9688 485.8594,576.9688 Q486.1094,576.9688 486.6406,576.4375 Q487.3125,575.7813 487.375,573.3906 L489.9688,573.3906 Q489.7656,576.375 488.7031,577.4375 Z " fill="#000000"/><text fill="#000000" font-family="sans-serif" font-size="14" lengthAdjust="spacing" textLength="58" x="500" y="577.7285">AISystem</text><line style="stroke:#181818;stroke-width:0.5;" x1="472" x2="560" y1="588" y2="588"/><line style="stroke:#181818;stroke-width:0.5;" x1="472" x2="560" y1="596" y2="596"/></g><!--MD5=[c3b73e2a9fae1c12f6d14fac8509f32e]
class BatterySystem--><g id="elem_BatterySystem"><rect codeLine="50" fill="#F1F1F1" height="48" id="BatterySystem" rx="2.5" ry="2.5" style="stroke:#181818;stroke-width:0.5;" width="123" x="169.5" y="680"/><ellipse cx="184.5" cy="696" fill="#ADD1B2" rx="11" ry="11" style="stroke:#181818;stroke-width:1.0;"/><path d="M187.2031,701.4375 Q186.2813,702.3594 184.0156,702.3594 Q182.75,702.3594 181.8281,701.4375 Q180.1719,699.7813 180.1719,696.25 Q180.1719,692.1406 181.9531,690.3438 Q182.8906,689.4219 184.0781,689.4219 Q186.3438,689.4219 187.0781,690.1406 Q188.4688,691.5469 188.4063,693.9375 L185.9375,693.9375 Q185.875,691.8125 185.1406,691.0781 Q184.75,690.6719 184.0781,690.6719 Q184.0781,690.6719 184.0156,691.1406 Q182.6875,692.4688 182.6875,696.125 Q182.6875,699.3125 183.8281,700.4375 Q184.3594,700.9688 184.3594,700.9688 Q184.6094,700.9688 185.1406,700.4375 Q185.8125,699.7813 185.875,697.3906 L188.4688,697.3906 Q188.2656,700.375 187.2031,701.4375 Z " fill="#000000"/><text fill="#000000" font-family="sans-serif" font-size="14" lengthAdjust="spacing" textLength="91" x="198.5" y="701.7285">BatterySystem</text><line style="stroke:#181818;stroke-width:0.5;" x1="170.5" x2="291.5" y1="712" y2="712"/><line style="stroke:#181818;stroke-width:0.5;" x1="170.5" x2="291.5" y1="720" y2="720"/></g><!--MD5=[9052447a28513dc27dd79eab56d3b0fe]
class GameSystem--><g id="elem_GameSystem"><rect codeLine="53" fill="#F1F1F1" height="48" id="GameSystem" rx="2.5" ry="2.5" style="stroke:#181818;stroke-width:0.5;" width="116" x="464" y="432"/><ellipse cx="479" cy="448" fill="#ADD1B2" rx="11" ry="11" style="stroke:#181818;stroke-width:1.0;"/><path d="M481.7031,453.4375 Q480.7813,454.3594 478.5156,454.3594 Q477.25,454.3594 476.3281,453.4375 Q474.6719,451.7813 474.6719,448.25 Q474.6719,444.1406 476.4531,442.3438 Q477.3906,441.4219 478.5781,441.4219 Q480.8438,441.4219 481.5781,442.1406 Q482.9688,443.5469 482.9063,445.9375 L480.4375,445.9375 Q480.375,443.8125 479.6406,443.0781 Q479.25,442.6719 478.5781,442.6719 Q478.5781,442.6719 478.5156,443.1406 Q477.1875,444.4688 477.1875,448.125 Q477.1875,451.3125 478.3281,452.4375 Q478.8594,452.9688 478.8594,452.9688 Q479.1094,452.9688 479.6406,452.4375 Q480.3125,451.7813 480.375,449.3906 L482.9688,449.3906 Q482.7656,452.375 481.7031,453.4375 Z " fill="#000000"/><text fill="#000000" font-family="sans-serif" font-size="14" lengthAdjust="spacing" textLength="84" x="493" y="453.7285">GameSystem</text><line style="stroke:#181818;stroke-width:0.5;" x1="465" x2="579" y1="464" y2="464"/><line style="stroke:#181818;stroke-width:0.5;" x1="465" x2="579" y1="472" y2="472"/></g><!--MD5=[7b2445d7532ff59aed56c4d603c33b34]
class ItemSystem--><g id="elem_ItemSystem"><rect codeLine="56" fill="#F1F1F1" height="48" id="ItemSystem" rx="2.5" ry="2.5" style="stroke:#181818;stroke-width:0.5;" width="104" x="615" y="432"/><ellipse cx="630" cy="448" fill="#ADD1B2" rx="11" ry="11" style="stroke:#181818;stroke-width:1.0;"/><path d="M632.7031,453.4375 Q631.7813,454.3594 629.5156,454.3594 Q628.25,454.3594 627.3281,453.4375 Q625.6719,451.7813 625.6719,448.25 Q625.6719,444.1406 627.4531,442.3438 Q628.3906,441.4219 629.5781,441.4219 Q631.8438,441.4219 632.5781,442.1406 Q633.9688,443.5469 633.9063,445.9375 L631.4375,445.9375 Q631.375,443.8125 630.6406,443.0781 Q630.25,442.6719 629.5781,442.6719 Q629.5781,442.6719 629.5156,443.1406 Q628.1875,444.4688 628.1875,448.125 Q628.1875,451.3125 629.3281,452.4375 Q629.8594,452.9688 629.8594,452.9688 Q630.1094,452.9688 630.6406,452.4375 Q631.3125,451.7813 631.375,449.3906 L633.9688,449.3906 Q633.7656,452.375 632.7031,453.4375 Z " fill="#000000"/><text fill="#000000" font-family="sans-serif" font-size="14" lengthAdjust="spacing" textLength="72" x="644" y="453.7285">ItemSystem</text><line style="stroke:#181818;stroke-width:0.5;" x1="616" x2="718" y1="464" y2="464"/><line style="stroke:#181818;stroke-width:0.5;" x1="616" x2="718" y1="472" y2="472"/></g><!--MD5=[2f2ed1e90a24c727ebda7a1cc833e5f4]
class TimeSystem--><g id="elem_TimeSystem"><rect codeLine="59" fill="#F1F1F1" height="48" id="TimeSystem" rx="2.5" ry="2.5" style="stroke:#181818;stroke-width:0.5;" width="109" x="327.5" y="680"/><ellipse cx="342.5" cy="696" fill="#ADD1B2" rx="11" ry="11" style="stroke:#181818;stroke-width:1.0;"/><path d="M345.2031,701.4375 Q344.2813,702.3594 342.0156,702.3594 Q340.75,702.3594 339.8281,701.4375 Q338.1719,699.7813 338.1719,696.25 Q338.1719,692.1406 339.9531,690.3438 Q340.8906,689.4219 342.0781,689.4219 Q344.3438,689.4219 345.0781,690.1406 Q346.4688,691.5469 346.4063,693.9375 L343.9375,693.9375 Q343.875,691.8125 343.1406,691.0781 Q342.75,690.6719 342.0781,690.6719 Q342.0781,690.6719 342.0156,691.1406 Q340.6875,692.4688 340.6875,696.125 Q340.6875,699.3125 341.8281,700.4375 Q342.3594,700.9688 342.3594,700.9688 Q342.6094,700.9688 343.1406,700.4375 Q343.8125,699.7813 343.875,697.3906 L346.4688,697.3906 Q346.2656,700.375 345.2031,701.4375 Z " fill="#000000"/><text fill="#000000" font-family="sans-serif" font-size="14" lengthAdjust="spacing" textLength="77" x="356.5" y="701.7285">TimeSystem</text><line style="stroke:#181818;stroke-width:0.5;" x1="328.5" x2="435.5" y1="712" y2="712"/><line style="stroke:#181818;stroke-width:0.5;" x1="328.5" x2="435.5" y1="720" y2="720"/></g><!--MD5=[4760bb4851664d39c26fc408bb0ad4cc]
class LifeSystem--><g id="elem_LifeSystem"><rect codeLine="62" fill="#F1F1F1" height="48" id="LifeSystem" rx="2.5" ry="2.5" style="stroke:#181818;stroke-width:0.5;" width="101" x="471.5" y="680"/><ellipse cx="486.5" cy="696" fill="#ADD1B2" rx="11" ry="11" style="stroke:#181818;stroke-width:1.0;"/><path d="M489.2031,701.4375 Q488.2813,702.3594 486.0156,702.3594 Q484.75,702.3594 483.8281,701.4375 Q482.1719,699.7813 482.1719,696.25 Q482.1719,692.1406 483.9531,690.3438 Q484.8906,689.4219 486.0781,689.4219 Q488.3438,689.4219 489.0781,690.1406 Q490.4688,691.5469 490.4063,693.9375 L487.9375,693.9375 Q487.875,691.8125 487.1406,691.0781 Q486.75,690.6719 486.0781,690.6719 Q486.0781,690.6719 486.0156,691.1406 Q484.6875,692.4688 484.6875,696.125 Q484.6875,699.3125 485.8281,700.4375 Q486.3594,700.9688 486.3594,700.9688 Q486.6094,700.9688 487.1406,700.4375 Q487.8125,699.7813 487.875,697.3906 L490.4688,697.3906 Q490.2656,700.375 489.2031,701.4375 Z " fill="#000000"/><text fill="#000000" font-family="sans-serif" font-size="14" lengthAdjust="spacing" textLength="69" x="500.5" y="701.7285">LifeSystem</text><line style="stroke:#181818;stroke-width:0.5;" x1="472.5" x2="571.5" y1="712" y2="712"/><line style="stroke:#181818;stroke-width:0.5;" x1="472.5" x2="571.5" y1="720" y2="720"/></g><!--MD5=[bbe56577037d852b1c78a54760285559]
class SoundSystem--><g id="elem_SoundSystem"><rect codeLine="65" fill="#F1F1F1" height="48" id="SoundSystem" rx="2.5" ry="2.5" style="stroke:#181818;stroke-width:0.5;" width="119" x="22.5" y="556"/><ellipse cx="37.5" cy="572" fill="#ADD1B2" rx="11" ry="11" style="stroke:#181818;stroke-width:1.0;"/><path d="M40.2031,577.4375 Q39.2813,578.3594 37.0156,578.3594 Q35.75,578.3594 34.8281,577.4375 Q33.1719,575.7813 33.1719,572.25 Q33.1719,568.1406 34.9531,566.3438 Q35.8906,565.4219 37.0781,565.4219 Q39.3438,565.4219 40.0781,566.1406 Q41.4688,567.5469 41.4063,569.9375 L38.9375,569.9375 Q38.875,567.8125 38.1406,567.0781 Q37.75,566.6719 37.0781,566.6719 Q37.0781,566.6719 37.0156,567.1406 Q35.6875,568.4688 35.6875,572.125 Q35.6875,575.3125 36.8281,576.4375 Q37.3594,576.9688 37.3594,576.9688 Q37.6094,576.9688 38.1406,576.4375 Q38.8125,575.7813 38.875,573.3906 L41.4688,573.3906 Q41.2656,576.375 40.2031,577.4375 Z " fill="#000000"/><text fill="#000000" font-family="sans-serif" font-size="14" lengthAdjust="spacing" textLength="87" x="51.5" y="577.7285">SoundSystem</text><line style="stroke:#181818;stroke-width:0.5;" x1="23.5" x2="140.5" y1="588" y2="588"/><line style="stroke:#181818;stroke-width:0.5;" x1="23.5" x2="140.5" y1="596" y2="596"/></g><!--MD5=[eb736b3bab59198e04b8f49a799e20dd]
class PlayerEntity--><g id="elem_PlayerEntity"><rect codeLine="70" fill="#F1F1F1" height="48" id="PlayerEntity" rx="2.5" ry="2.5" style="stroke:#181818;stroke-width:0.5;" width="107" x="1219.5" y="432"/><ellipse cx="1234.5" cy="448" fill="#ADD1B2" rx="11" ry="11" style="stroke:#181818;stroke-width:1.0;"/><path d="M1237.2031,453.4375 Q1236.2813,454.3594 1234.0156,454.3594 Q1232.75,454.3594 1231.8281,453.4375 Q1230.1719,451.7813 1230.1719,448.25 Q1230.1719,444.1406 1231.9531,442.3438 Q1232.8906,441.4219 1234.0781,441.4219 Q1236.3438,441.4219 1237.0781,442.1406 Q1238.4688,443.5469 1238.4063,445.9375 L1235.9375,445.9375 Q1235.875,443.8125 1235.1406,443.0781 Q1234.75,442.6719 1234.0781,442.6719 Q1234.0781,442.6719 1234.0156,443.1406 Q1232.6875,444.4688 1232.6875,448.125 Q1232.6875,451.3125 1233.8281,452.4375 Q1234.3594,452.9688 1234.3594,452.9688 Q1234.6094,452.9688 1235.1406,452.4375 Q1235.8125,451.7813 1235.875,449.3906 L1238.4688,449.3906 Q1238.2656,452.375 1237.2031,453.4375 Z " fill="#000000"/><text fill="#000000" font-family="sans-serif" font-size="14" lengthAdjust="spacing" textLength="75" x="1248.5" y="453.7285">PlayerEntity</text><line style="stroke:#181818;stroke-width:0.5;" x1="1220.5" x2="1325.5" y1="464" y2="464"/><line style="stroke:#181818;stroke-width:0.5;" x1="1220.5" x2="1325.5" y1="472" y2="472"/></g><!--MD5=[ca133d44347dd06c4a953fb78c903025]
class DogEntity--><g id="elem_DogEntity"><rect codeLine="73" fill="#F1F1F1" height="48" id="DogEntity" rx="2.5" ry="2.5" style="stroke:#181818;stroke-width:0.5;" width="93" x="1091.5" y="432"/><ellipse cx="1106.5" cy="448" fill="#ADD1B2" rx="11" ry="11" style="stroke:#181818;stroke-width:1.0;"/><path d="M1109.2031,453.4375 Q1108.2813,454.3594 1106.0156,454.3594 Q1104.75,454.3594 1103.8281,453.4375 Q1102.1719,451.7813 1102.1719,448.25 Q1102.1719,444.1406 1103.9531,442.3438 Q1104.8906,441.4219 1106.0781,441.4219 Q1108.3438,441.4219 1109.0781,442.1406 Q1110.4688,443.5469 1110.4063,445.9375 L1107.9375,445.9375 Q1107.875,443.8125 1107.1406,443.0781 Q1106.75,442.6719 1106.0781,442.6719 Q1106.0781,442.6719 1106.0156,443.1406 Q1104.6875,444.4688 1104.6875,448.125 Q1104.6875,451.3125 1105.8281,452.4375 Q1106.3594,452.9688 1106.3594,452.9688 Q1106.6094,452.9688 1107.1406,452.4375 Q1107.8125,451.7813 1107.875,449.3906 L1110.4688,449.3906 Q1110.2656,452.375 1109.2031,453.4375 Z " fill="#000000"/><text fill="#000000" font-family="sans-serif" font-size="14" lengthAdjust="spacing" textLength="61" x="1120.5" y="453.7285">DogEntity</text><line style="stroke:#181818;stroke-width:0.5;" x1="1092.5" x2="1183.5" y1="464" y2="464"/><line style="stroke:#181818;stroke-width:0.5;" x1="1092.5" x2="1183.5" y1="472" y2="472"/></g><!--MD5=[684335f5efccd2c18d62c8a6f6980346]
class DustEntity--><g id="elem_DustEntity"><rect codeLine="76" fill="#F1F1F1" height="48" id="DustEntity" rx="2.5" ry="2.5" style="stroke:#181818;stroke-width:0.5;" width="96" x="960" y="432"/><ellipse cx="975" cy="448" fill="#ADD1B2" rx="11" ry="11" style="stroke:#181818;stroke-width:1.0;"/><path d="M977.7031,453.4375 Q976.7813,454.3594 974.5156,454.3594 Q973.25,454.3594 972.3281,453.4375 Q970.6719,451.7813 970.6719,448.25 Q970.6719,444.1406 972.4531,442.3438 Q973.3906,441.4219 974.5781,441.4219 Q976.8438,441.4219 977.5781,442.1406 Q978.9688,443.5469 978.9063,445.9375 L976.4375,445.9375 Q976.375,443.8125 975.6406,443.0781 Q975.25,442.6719 974.5781,442.6719 Q974.5781,442.6719 974.5156,443.1406 Q973.1875,444.4688 973.1875,448.125 Q973.1875,451.3125 974.3281,452.4375 Q974.8594,452.9688 974.8594,452.9688 Q975.1094,452.9688 975.6406,452.4375 Q976.3125,451.7813 976.375,449.3906 L978.9688,449.3906 Q978.7656,452.375 977.7031,453.4375 Z " fill="#000000"/><text fill="#000000" font-family="sans-serif" font-size="14" lengthAdjust="spacing" textLength="64" x="989" y="453.7285">DustEntity</text><line style="stroke:#181818;stroke-width:0.5;" x1="961" x2="1055" y1="464" y2="464"/><line style="stroke:#181818;stroke-width:0.5;" x1="961" x2="1055" y1="472" y2="472"/></g><!--MD5=[20be49a2aaa35081082027c12ecda225]
class CanvasEntity--><g id="elem_CanvasEntity"><rect codeLine="79" fill="#F1F1F1" height="48" id="CanvasEntity" rx="2.5" ry="2.5" style="stroke:#181818;stroke-width:0.5;" width="115" x="809.5" y="432"/><ellipse cx="824.5" cy="448" fill="#ADD1B2" rx="11" ry="11" style="stroke:#181818;stroke-width:1.0;"/><path d="M827.2031,453.4375 Q826.2813,454.3594 824.0156,454.3594 Q822.75,454.3594 821.8281,453.4375 Q820.1719,451.7813 820.1719,448.25 Q820.1719,444.1406 821.9531,442.3438 Q822.8906,441.4219 824.0781,441.4219 Q826.3438,441.4219 827.0781,442.1406 Q828.4688,443.5469 828.4063,445.9375 L825.9375,445.9375 Q825.875,443.8125 825.1406,443.0781 Q824.75,442.6719 824.0781,442.6719 Q824.0781,442.6719 824.0156,443.1406 Q822.6875,444.4688 822.6875,448.125 Q822.6875,451.3125 823.8281,452.4375 Q824.3594,452.9688 824.3594,452.9688 Q824.6094,452.9688 825.1406,452.4375 Q825.8125,451.7813 825.875,449.3906 L828.4688,449.3906 Q828.2656,452.375 827.2031,453.4375 Z " fill="#000000"/><text fill="#000000" font-family="sans-serif" font-size="14" lengthAdjust="spacing" textLength="83" x="838.5" y="453.7285">CanvasEntity</text><line style="stroke:#181818;stroke-width:0.5;" x1="810.5" x2="923.5" y1="464" y2="464"/><line style="stroke:#181818;stroke-width:0.5;" x1="810.5" x2="923.5" y1="472" y2="472"/></g><!--MD5=[b8a68a074109c2be3ab95d906f89f33b]
class MoveComponent--><g id="elem_MoveComponent"><rect codeLine="84" fill="#F1F1F1" height="48" id="MoveComponent" rx="2.5" ry="2.5" style="stroke:#181818;stroke-width:0.5;" width="139" x="1275.5" y="556"/><ellipse cx="1290.5" cy="572" fill="#ADD1B2" rx="11" ry="11" style="stroke:#181818;stroke-width:1.0;"/><path d="M1293.2031,577.4375 Q1292.2813,578.3594 1290.0156,578.3594 Q1288.75,578.3594 1287.8281,577.4375 Q1286.1719,575.7813 1286.1719,572.25 Q1286.1719,568.1406 1287.9531,566.3438 Q1288.8906,565.4219 1290.0781,565.4219 Q1292.3438,565.4219 1293.0781,566.1406 Q1294.4688,567.5469 1294.4063,569.9375 L1291.9375,569.9375 Q1291.875,567.8125 1291.1406,567.0781 Q1290.75,566.6719 1290.0781,566.6719 Q1290.0781,566.6719 1290.0156,567.1406 Q1288.6875,568.4688 1288.6875,572.125 Q1288.6875,575.3125 1289.8281,576.4375 Q1290.3594,576.9688 1290.3594,576.9688 Q1290.6094,576.9688 1291.1406,576.4375 Q1291.8125,575.7813 1291.875,573.3906 L1294.4688,573.3906 Q1294.2656,576.375 1293.2031,577.4375 Z " fill="#000000"/><text fill="#000000" font-family="sans-serif" font-size="14" lengthAdjust="spacing" textLength="107" x="1304.5" y="577.7285">MoveComponent</text><line style="stroke:#181818;stroke-width:0.5;" x1="1276.5" x2="1413.5" y1="588" y2="588"/><line style="stroke:#181818;stroke-width:0.5;" x1="1276.5" x2="1413.5" y1="596" y2="596"/></g><!--MD5=[275c099e03b61ab88a65b20f672e0532]
class AIComponent--><g id="elem_AIComponent"><rect codeLine="87" fill="#F1F1F1" height="48" id="AIComponent" rx="2.5" ry="2.5" style="stroke:#181818;stroke-width:0.5;" width="117" x="1123.5" y="556"/><ellipse cx="1138.5" cy="572" fill="#ADD1B2" rx="11" ry="11" style="stroke:#181818;stroke-width:1.0;"/><path d="M1141.2031,577.4375 Q1140.2813,578.3594 1138.0156,578.3594 Q1136.75,578.3594 1135.8281,577.4375 Q1134.1719,575.7813 1134.1719,572.25 Q1134.1719,568.1406 1135.9531,566.3438 Q1136.8906,565.4219 1138.0781,565.4219 Q1140.3438,565.4219 1141.0781,566.1406 Q1142.4688,567.5469 1142.4063,569.9375 L1139.9375,569.9375 Q1139.875,567.8125 1139.1406,567.0781 Q1138.75,566.6719 1138.0781,566.6719 Q1138.0781,566.6719 1138.0156,567.1406 Q1136.6875,568.4688 1136.6875,572.125 Q1136.6875,575.3125 1137.8281,576.4375 Q1138.3594,576.9688 1138.3594,576.9688 Q1138.6094,576.9688 1139.1406,576.4375 Q1139.8125,575.7813 1139.875,573.3906 L1142.4688,573.3906 Q1142.2656,576.375 1141.2031,577.4375 Z " fill="#000000"/><text fill="#000000" font-family="sans-serif" font-size="14" lengthAdjust="spacing" textLength="85" x="1152.5" y="577.7285">AIComponent</text><line style="stroke:#181818;stroke-width:0.5;" x1="1124.5" x2="1239.5" y1="588" y2="588"/><line style="stroke:#181818;stroke-width:0.5;" x1="1124.5" x2="1239.5" y1="596" y2="596"/></g><!--MD5=[44d3bd067435ee2139bdd371f5b9c1f0]
class CleaningComponent--><g id="elem_CleaningComponent"><rect codeLine="90" fill="#F1F1F1" height="48" id="CleaningComponent" rx="2.5" ry="2.5" style="stroke:#181818;stroke-width:0.5;" width="161" x="927.5" y="556"/><ellipse cx="942.5" cy="572" fill="#ADD1B2" rx="11" ry="11" style="stroke:#181818;stroke-width:1.0;"/><path d="M945.2031,577.4375 Q944.2813,578.3594 942.0156,578.3594 Q940.75,578.3594 939.8281,577.4375 Q938.1719,575.7813 938.1719,572.25 Q938.1719,568.1406 939.9531,566.3438 Q940.8906,565.4219 942.0781,565.4219 Q944.3438,565.4219 945.0781,566.1406 Q946.4688,567.5469 946.4063,569.9375 L943.9375,569.9375 Q943.875,567.8125 943.1406,567.0781 Q942.75,566.6719 942.0781,566.6719 Q942.0781,566.6719 942.0156,567.1406 Q940.6875,568.4688 940.6875,572.125 Q940.6875,575.3125 941.8281,576.4375 Q942.3594,576.9688 942.3594,576.9688 Q942.6094,576.9688 943.1406,576.4375 Q943.8125,575.7813 943.875,573.3906 L946.4688,573.3906 Q946.2656,576.375 945.2031,577.4375 Z " fill="#000000"/><text fill="#000000" font-family="sans-serif" font-size="14" lengthAdjust="spacing" textLength="129" x="956.5" y="577.7285">CleaningComponent</text><line style="stroke:#181818;stroke-width:0.5;" x1="928.5" x2="1087.5" y1="588" y2="588"/><line style="stroke:#181818;stroke-width:0.5;" x1="928.5" x2="1087.5" y1="596" y2="596"/></g><!--MD5=[5f541e8ad6d2a88033f479c756d5b41a]
class UIComponent--><g id="elem_UIComponent"><rect codeLine="93" fill="#F1F1F1" height="48" id="UIComponent" rx="2.5" ry="2.5" style="stroke:#181818;stroke-width:0.5;" width="117" x="775.5" y="556"/><ellipse cx="790.5" cy="572" fill="#ADD1B2" rx="11" ry="11" style="stroke:#181818;stroke-width:1.0;"/><path d="M793.2031,577.4375 Q792.2813,578.3594 790.0156,578.3594 Q788.75,578.3594 787.8281,577.4375 Q786.1719,575.7813 786.1719,572.25 Q786.1719,568.1406 787.9531,566.3438 Q788.8906,565.4219 790.0781,565.4219 Q792.3438,565.4219 793.0781,566.1406 Q794.4688,567.5469 794.4063,569.9375 L791.9375,569.9375 Q791.875,567.8125 791.1406,567.0781 Q790.75,566.6719 790.0781,566.6719 Q790.0781,566.6719 790.0156,567.1406 Q788.6875,568.4688 788.6875,572.125 Q788.6875,575.3125 789.8281,576.4375 Q790.3594,576.9688 790.3594,576.9688 Q790.6094,576.9688 791.1406,576.4375 Q791.8125,575.7813 791.875,573.3906 L794.4688,573.3906 Q794.2656,576.375 793.2031,577.4375 Z " fill="#000000"/><text fill="#000000" font-family="sans-serif" font-size="14" lengthAdjust="spacing" textLength="85" x="804.5" y="577.7285">UIComponent</text><line style="stroke:#181818;stroke-width:0.5;" x1="776.5" x2="891.5" y1="588" y2="588"/><line style="stroke:#181818;stroke-width:0.5;" x1="776.5" x2="891.5" y1="596" y2="596"/></g><!--MD5=[6691307bf5c2922edfe97948675737ae]
class StatusComponent--><g id="elem_StatusComponent"><rect codeLine="96" fill="#F1F1F1" height="48" id="StatusComponent" rx="2.5" ry="2.5" style="stroke:#181818;stroke-width:0.5;" width="145" x="1449.5" y="556"/><ellipse cx="1464.5" cy="572" fill="#ADD1B2" rx="11" ry="11" style="stroke:#181818;stroke-width:1.0;"/><path d="M1467.2031,577.4375 Q1466.2813,578.3594 1464.0156,578.3594 Q1462.75,578.3594 1461.8281,577.4375 Q1460.1719,575.7813 1460.1719,572.25 Q1460.1719,568.1406 1461.9531,566.3438 Q1462.8906,565.4219 1464.0781,565.4219 Q1466.3438,565.4219 1467.0781,566.1406 Q1468.4688,567.5469 1468.4063,569.9375 L1465.9375,569.9375 Q1465.875,567.8125 1465.1406,567.0781 Q1464.75,566.6719 1464.0781,566.6719 Q1464.0781,566.6719 1464.0156,567.1406 Q1462.6875,568.4688 1462.6875,572.125 Q1462.6875,575.3125 1463.8281,576.4375 Q1464.3594,576.9688 1464.3594,576.9688 Q1464.6094,576.9688 1465.1406,576.4375 Q1465.8125,575.7813 1465.875,573.3906 L1468.4688,573.3906 Q1468.2656,576.375 1467.2031,577.4375 Z " fill="#000000"/><text fill="#000000" font-family="sans-serif" font-size="14" lengthAdjust="spacing" textLength="113" x="1478.5" y="577.7285">StatusComponent</text><line style="stroke:#181818;stroke-width:0.5;" x1="1450.5" x2="1593.5" y1="588" y2="588"/><line style="stroke:#181818;stroke-width:0.5;" x1="1450.5" x2="1593.5" y1="596" y2="596"/></g><!--MD5=[495d81f3ba11fc288f59a7adade970d6]
class BaseLogic--><g id="elem_BaseLogic"><rect codeLine="101" fill="#F1F1F1" height="48" id="BaseLogic" rx="2.5" ry="2.5" style="stroke:#181818;stroke-width:0.5;" width="98" x="1065" y="788"/><ellipse cx="1080" cy="804" fill="#ADD1B2" rx="11" ry="11" style="stroke:#181818;stroke-width:1.0;"/><path d="M1082.7031,809.4375 Q1081.7813,810.3594 1079.5156,810.3594 Q1078.25,810.3594 1077.3281,809.4375 Q1075.6719,807.7813 1075.6719,804.25 Q1075.6719,800.1406 1077.4531,798.3438 Q1078.3906,797.4219 1079.5781,797.4219 Q1081.8438,797.4219 1082.5781,798.1406 Q1083.9688,799.5469 1083.9063,801.9375 L1081.4375,801.9375 Q1081.375,799.8125 1080.6406,799.0781 Q1080.25,798.6719 1079.5781,798.6719 Q1079.5781,798.6719 1079.5156,799.1406 Q1078.1875,800.4688 1078.1875,804.125 Q1078.1875,807.3125 1079.3281,808.4375 Q1079.8594,808.9688 1079.8594,808.9688 Q1080.1094,808.9688 1080.6406,808.4375 Q1081.3125,807.7813 1081.375,805.3906 L1083.9688,805.3906 Q1083.7656,808.375 1082.7031,809.4375 Z " fill="#000000"/><text fill="#000000" font-family="sans-serif" font-size="14" lengthAdjust="spacing" textLength="66" x="1094" y="809.7285">BaseLogic</text><line style="stroke:#181818;stroke-width:0.5;" x1="1066" x2="1162" y1="820" y2="820"/><line style="stroke:#181818;stroke-width:0.5;" x1="1066" x2="1162" y1="828" y2="828"/></g><!--MD5=[fe08ed1c615dc951cb8da0700f0c6cae]
class BaseAction--><g id="elem_BaseAction"><rect codeLine="104" fill="#F1F1F1" height="48" id="BaseAction" rx="2.5" ry="2.5" style="stroke:#181818;stroke-width:0.5;" width="103" x="1198.5" y="788"/><ellipse cx="1213.5" cy="804" fill="#ADD1B2" rx="11" ry="11" style="stroke:#181818;stroke-width:1.0;"/><path d="M1216.2031,809.4375 Q1215.2813,810.3594 1213.0156,810.3594 Q1211.75,810.3594 1210.8281,809.4375 Q1209.1719,807.7813 1209.1719,804.25 Q1209.1719,800.1406 1210.9531,798.3438 Q1211.8906,797.4219 1213.0781,797.4219 Q1215.3438,797.4219 1216.0781,798.1406 Q1217.4688,799.5469 1217.4063,801.9375 L1214.9375,801.9375 Q1214.875,799.8125 1214.1406,799.0781 Q1213.75,798.6719 1213.0781,798.6719 Q1213.0781,798.6719 1213.0156,799.1406 Q1211.6875,800.4688 1211.6875,804.125 Q1211.6875,807.3125 1212.8281,808.4375 Q1213.3594,808.9688 1213.3594,808.9688 Q1213.6094,808.9688 1214.1406,808.4375 Q1214.8125,807.7813 1214.875,805.3906 L1217.4688,805.3906 Q1217.2656,808.375 1216.2031,809.4375 Z " fill="#000000"/><text fill="#000000" font-family="sans-serif" font-size="14" lengthAdjust="spacing" textLength="71" x="1227.5" y="809.7285">BaseAction</text><line style="stroke:#181818;stroke-width:0.5;" x1="1199.5" x2="1300.5" y1="820" y2="820"/><line style="stroke:#181818;stroke-width:0.5;" x1="1199.5" x2="1300.5" y1="828" y2="828"/></g><!--MD5=[ced70c4db88c0caf8c044d862484d7f7]
class BaseState--><g id="elem_BaseState"><rect codeLine="107" fill="#F1F1F1" height="48" id="BaseState" rx="2.5" ry="2.5" style="stroke:#181818;stroke-width:0.5;" width="97" x="1133.5" y="680"/><ellipse cx="1148.5" cy="696" fill="#ADD1B2" rx="11" ry="11" style="stroke:#181818;stroke-width:1.0;"/><path d="M1151.2031,701.4375 Q1150.2813,702.3594 1148.0156,702.3594 Q1146.75,702.3594 1145.8281,701.4375 Q1144.1719,699.7813 1144.1719,696.25 Q1144.1719,692.1406 1145.9531,690.3438 Q1146.8906,689.4219 1148.0781,689.4219 Q1150.3438,689.4219 1151.0781,690.1406 Q1152.4688,691.5469 1152.4063,693.9375 L1149.9375,693.9375 Q1149.875,691.8125 1149.1406,691.0781 Q1148.75,690.6719 1148.0781,690.6719 Q1148.0781,690.6719 1148.0156,691.1406 Q1146.6875,692.4688 1146.6875,696.125 Q1146.6875,699.3125 1147.8281,700.4375 Q1148.3594,700.9688 1148.3594,700.9688 Q1148.6094,700.9688 1149.1406,700.4375 Q1149.8125,699.7813 1149.875,697.3906 L1152.4688,697.3906 Q1152.2656,700.375 1151.2031,701.4375 Z " fill="#000000"/><text fill="#000000" font-family="sans-serif" font-size="14" lengthAdjust="spacing" textLength="65" x="1162.5" y="701.7285">BaseState</text><line style="stroke:#181818;stroke-width:0.5;" x1="1134.5" x2="1229.5" y1="712" y2="712"/><line style="stroke:#181818;stroke-width:0.5;" x1="1134.5" x2="1229.5" y1="720" y2="720"/></g><!--MD5=[39b01175d2c1691f74b0b368dfdc0b04]
class GameEvent--><g id="elem_GameEvent"><rect codeLine="10" fill="#F1F1F1" height="48" id="GameEvent" rx="2.5" ry="2.5" style="stroke:#181818;stroke-width:0.5;" width="106" x="660" y="86"/><ellipse cx="675" cy="102" fill="#ADD1B2" rx="11" ry="11" style="stroke:#181818;stroke-width:1.0;"/><path d="M677.7031,107.4375 Q676.7813,108.3594 674.5156,108.3594 Q673.25,108.3594 672.3281,107.4375 Q670.6719,105.7813 670.6719,102.25 Q670.6719,98.1406 672.4531,96.3438 Q673.3906,95.4219 674.5781,95.4219 Q676.8438,95.4219 677.5781,96.1406 Q678.9688,97.5469 678.9063,99.9375 L676.4375,99.9375 Q676.375,97.8125 675.6406,97.0781 Q675.25,96.6719 674.5781,96.6719 Q674.5781,96.6719 674.5156,97.1406 Q673.1875,98.4688 673.1875,102.125 Q673.1875,105.3125 674.3281,106.4375 Q674.8594,106.9688 674.8594,106.9688 Q675.1094,106.9688 675.6406,106.4375 Q676.3125,105.7813 676.375,103.3906 L678.9688,103.3906 Q678.7656,106.375 677.7031,107.4375 Z " fill="#000000"/><text fill="#000000" font-family="sans-serif" font-size="14" lengthAdjust="spacing" textLength="74" x="689" y="107.7285">GameEvent</text><line style="stroke:#181818;stroke-width:0.5;" x1="661" x2="765" y1="118" y2="118"/><line style="stroke:#181818;stroke-width:0.5;" x1="661" x2="765" y1="126" y2="126"/></g><!--MD5=[48e88c162c5505361c629eb6ff3812a8]
class GameState--><g id="elem_GameState"><rect codeLine="13" fill="#F1F1F1" height="48" id="GameState" rx="2.5" ry="2.5" style="stroke:#181818;stroke-width:0.5;" width="103" x="885.5" y="289"/><ellipse cx="900.5" cy="305" fill="#ADD1B2" rx="11" ry="11" style="stroke:#181818;stroke-width:1.0;"/><path d="M903.2031,310.4375 Q902.2813,311.3594 900.0156,311.3594 Q898.75,311.3594 897.8281,310.4375 Q896.1719,308.7813 896.1719,305.25 Q896.1719,301.1406 897.9531,299.3438 Q898.8906,298.4219 900.0781,298.4219 Q902.3438,298.4219 903.0781,299.1406 Q904.4688,300.5469 904.4063,302.9375 L901.9375,302.9375 Q901.875,300.8125 901.1406,300.0781 Q900.75,299.6719 900.0781,299.6719 Q900.0781,299.6719 900.0156,300.1406 Q898.6875,301.4688 898.6875,305.125 Q898.6875,308.3125 899.8281,309.4375 Q900.3594,309.9688 900.3594,309.9688 Q900.6094,309.9688 901.1406,309.4375 Q901.8125,308.7813 901.875,306.3906 L904.4688,306.3906 Q904.2656,309.375 903.2031,310.4375 Z " fill="#000000"/><text fill="#000000" font-family="sans-serif" font-size="14" lengthAdjust="spacing" textLength="71" x="914.5" y="310.7285">GameState</text><line style="stroke:#181818;stroke-width:0.5;" x1="886.5" x2="987.5" y1="321" y2="321"/><line style="stroke:#181818;stroke-width:0.5;" x1="886.5" x2="987.5" y1="329" y2="329"/></g><!--MD5=[01f947c3e66f7600fe358f7e7a470af6]
link GameMain to BaseSystem--><g id="link_GameMain_BaseSystem"><path codeLine="112" d="M394.87,178.21 C417,201.5 441.69,227.48 463.38,250.31 " fill="none" id="GameMain-to-BaseSystem" style="stroke:#181818;stroke-width:1.0;"/><polygon fill="#181818" points="466.83,253.94,463.5187,244.6645,463.3814,250.3197,457.7262,250.1823,466.83,253.94" style="stroke:#181818;stroke-width:1.0;"/></g><!--MD5=[bd2b16ce8500433747a904101ebeedd0]
link GameMain to IPreUpdate--><g id="link_GameMain_IPreUpdate"><path codeLine="113" d="M331,178.21 C331,210.31 331,247.51 331,274.53 " fill="none" id="GameMain-to-IPreUpdate" style="stroke:#181818;stroke-width:1.0;"/><polygon fill="#181818" points="331,279.79,335,270.79,331,274.79,327,270.79,331,279.79" style="stroke:#181818;stroke-width:1.0;"/></g><!--MD5=[9044f8e0e9552113e9759be5cfc40a31]
link GameMain to IOnUpdate--><g id="link_GameMain_IOnUpdate"><path codeLine="114" d="M283.12,178.19 C275.67,188.8 268.09,199.68 261,210 C246.22,231.53 229.98,255.86 217.08,275.35 " fill="none" id="GameMain-to-IOnUpdate" style="stroke:#181818;stroke-width:1.0;"/><polygon fill="#181818" points="214.21,279.69,222.5096,274.3874,216.967,275.5188,215.8356,269.9762,214.21,279.69" style="stroke:#181818;stroke-width:1.0;"/></g><!--MD5=[7cca9ad38b2e80ad0bef5d762095aa8d]
link BaseSystem to GameEvent--><!--MD5=[cc2bde19e687220b1b614e388013d071]
reverse link GameEvent to BaseSystem--><g id="link_GameEvent_BaseSystem"><path codeLine="121" d="M696.68,138.27 C672.65,167.77 628.05,215.67 589.77,253.71 " fill="none" id="GameEvent-backto-BaseSystem" style="stroke:#181818;stroke-width:1.0;"/><polygon fill="#181818" points="700.08,134.06,691.3182,138.5578,696.9426,137.9532,697.5473,143.5776,700.08,134.06" style="stroke:#181818;stroke-width:1.0;"/></g><!--MD5=[7a21080640d83b2f7f60926a95f4efb6]
link BaseSystem to GameState--><!--MD5=[a5abcc34c91ef1438009994aefa59c0c]
reverse link GameState to BaseSystem--><g id="link_GameState_BaseSystem"><path codeLine="120" d="M880.26,313 C795.42,313 710.59,313 625.75,313 " fill="none" id="GameState-backto-BaseSystem" style="stroke:#181818;stroke-width:1.0;"/><polygon fill="#181818" points="885.33,313,876.33,309,880.33,313,876.33,317,885.33,313" style="stroke:#181818;stroke-width:1.0;"/></g><!--MD5=[ef224158229a0feba27acdf38ae5dcc0]
link GameEvent to GameState--><!--MD5=[4125d0dcd378b525562a96309f3bbcff]
link BaseSystem to GameRule--><!--MD5=[a50dbab345a6b46b7c08ca1f5f648f49]
link BaseSystem to ItemSystem--><!--MD5=[dd14dfae1746637394a78d56bc83031e]
link BaseSystem to GameSystem--><!--MD5=[8d6cc9e93396b7a52995699f38c20081]
link BaseSystem to InputSystem--><!--MD5=[bc5f759cf587f5fea7bb242124d42b2f]
link BaseSystem to CameraSystem--><!--MD5=[285e912147ffd23e71d185602be38378]
link GameRule to UISystem--><!--MD5=[9fc32fd777d86c8cc0ceab2e7e97c6b6]
link GameRule to CleaningSystem--><!--MD5=[bf245a720d5fb75ad5c5a127b0119855]
link GameRule to AISystem--><!--MD5=[a4f1a14445a57b1ddad3066c38ca171b]
link GameRule to SoundSystem--><!--MD5=[f871a226ffe55238eeeb901e687bd8a9]
link SoundSystem to BatterySystem--><!--MD5=[aa4fa4b1dc8ffaa3cc2feb4942f0a7a9]
link SoundSystem to LifeSystem--><!--MD5=[65e5f44ddc16e3a93bc6d85d172ad90e]
link SoundSystem to MoveSystem--><!--MD5=[d103c7fa1f4bbda74a079cfffa92a659]
link SoundSystem to TimeSystem--><!--MD5=[a2f016acc824226563af70e9ad370ffb]
reverse link GameState to PlayerEntity--><g id="link_GameState_PlayerEntity"><path codeLine="137" d="M1001.56,323.06 C1057.4,332.93 1138.86,352.32 1202,388 C1221.92,399.26 1240.57,417.27 1253.76,431.79 " fill="none" id="GameState-backto-PlayerEntity" style="stroke:#181818;stroke-width:1.0;"/><polygon fill="none" points="988.65,320.87,993.8974,325.8162,1000.4813,322.8749,995.234,317.9287,988.65,320.87" style="stroke:#181818;stroke-width:1.0;"/></g><!--MD5=[361ab3966d0ad2ae74d1924653111214]
reverse link GameState to DogEntity--><g id="link_GameState_DogEntity"><path codeLine="138" d="M1000.65,343.12 C1024.66,355.43 1051.57,370.89 1074,388 C1090.75,400.78 1107.12,418.03 1119.11,431.82 " fill="none" id="GameState-backto-DogEntity" style="stroke:#181818;stroke-width:1.0;"/><polygon fill="none" points="988.76,337.16,992.3285,343.4263,999.4852,342.5424,995.9167,336.2761,988.76,337.16" style="stroke:#181818;stroke-width:1.0;"/></g><!--MD5=[b7c6d2621b60773016f314e2c6490f07]
reverse link GameState to DustEntity--><g id="link_GameState_DustEntity"><path codeLine="139" d="M954.71,349.17 C967.69,374.94 984.95,409.22 996.26,431.68 " fill="none" id="GameState-backto-DustEntity" style="stroke:#181818;stroke-width:1.0;"/><polygon fill="none" points="948.72,337.28,947.8467,344.438,954.1182,347.9972,954.9915,340.8392,948.72,337.28" style="stroke:#181818;stroke-width:1.0;"/></g><!--MD5=[adc72dbdb9ac8eeb4d2aa3b93a63bdd2]
reverse link GameState to CanvasEntity--><g id="link_GameState_CanvasEntity"><path codeLine="140" d="M919.54,349.17 C906.74,374.94 889.73,409.22 878.58,431.68 " fill="none" id="GameState-backto-CanvasEntity" style="stroke:#181818;stroke-width:1.0;"/><polygon fill="none" points="925.44,337.28,919.1896,340.8761,920.1051,348.0289,926.3555,344.4328,925.44,337.28" style="stroke:#181818;stroke-width:1.0;"/></g><!--MD5=[21a447fa168cc4e2b15d7ce17396aef8]
reverse link PlayerEntity to MoveComponent--><g id="link_PlayerEntity_MoveComponent"><path codeLine="142" d="M1293.46,491.68 C1305.6,512.23 1320.64,537.73 1331.34,555.85 " fill="none" id="PlayerEntity-backto-MoveComponent" style="stroke:#181818;stroke-width:1.0;"/><polygon fill="none" points="1286.71,480.23,1286.31,487.43,1292.8023,490.5685,1293.2023,483.3685,1286.71,480.23" style="stroke:#181818;stroke-width:1.0;"/></g><!--MD5=[5b0a627524c8117ee2a81af8c4580cea]
reverse link PlayerEntity to StatusComponent--><g id="link_PlayerEntity_StatusComponent"><path codeLine="143" d="M1339.25,474.91 C1368.54,484.09 1402.87,496.6 1432,512 C1454.9,524.11 1478.3,541.72 1495.5,555.85 " fill="none" id="PlayerEntity-backto-StatusComponent" style="stroke:#181818;stroke-width:1.0;"/><polygon fill="none" points="1326.61,471.06,1331.1841,476.6347,1338.0893,474.5566,1333.5152,468.9819,1326.61,471.06" style="stroke:#181818;stroke-width:1.0;"/></g><!--MD5=[d1907c0096dd141f95844835496d55a1]
reverse link DogEntity to AIComponent--><g id="link_DogEntity_AIComponent"><path codeLine="144" d="M1150.82,492.54 C1158.18,512.95 1167.21,537.98 1173.65,555.85 " fill="none" id="DogEntity-backto-AIComponent" style="stroke:#181818;stroke-width:1.0;"/><polygon fill="none" points="1146.38,480.23,1144.6548,487.2317,1150.4544,491.5171,1152.1796,484.5154,1146.38,480.23" style="stroke:#181818;stroke-width:1.0;"/></g><!--MD5=[1e26cbd3ba14dc368fc03230a998816e]
reverse link DustEntity to CleaningComponent--><g id="link_DustEntity_CleaningComponent"><path codeLine="145" d="M1008,493.42 C1008,513.66 1008,538.24 1008,555.85 " fill="none" id="DustEntity-backto-CleaningComponent" style="stroke:#181818;stroke-width:1.0;"/><polygon fill="none" points="1008,480.23,1004,486.23,1008,492.23,1012,486.23,1008,480.23" style="stroke:#181818;stroke-width:1.0;"/></g><!--MD5=[203211ecc7c2b40f70e17ae7ab4ec7db]
reverse link CanvasEntity to UIComponent--><g id="link_CanvasEntity_UIComponent"><path codeLine="146" d="M857.31,492.83 C851.8,513.18 845.07,538.07 840.26,555.85 " fill="none" id="CanvasEntity-backto-UIComponent" style="stroke:#181818;stroke-width:1.0;"/><polygon fill="none" points="860.72,480.23,855.2946,484.9803,857.5927,491.8153,863.0182,487.0651,860.72,480.23" style="stroke:#181818;stroke-width:1.0;"/></g><!--MD5=[9502e97e0d34a033a4f620faf2eca87e]
reverse link AIComponent to BaseState--><g id="link_AIComponent_BaseState"><path codeLine="148" d="M1182,617.42 C1182,637.66 1182,662.24 1182,679.85 " fill="none" id="AIComponent-backto-BaseState" style="stroke:#181818;stroke-width:1.0;"/><polygon fill="none" points="1182,604.23,1178,610.23,1182,616.23,1186,610.23,1182,604.23" style="stroke:#181818;stroke-width:1.0;"/></g><!--MD5=[91af489f31f5c7496e558cc9e15493ba]
reverse link BaseState to BaseLogic--><g id="link_BaseState_BaseLogic"><path codeLine="149" d="M1160.18,739.01 C1149.99,754.89 1138.12,773.41 1128.96,787.68 " fill="none" id="BaseState-backto-BaseLogic" style="stroke:#181818;stroke-width:1.0;"/><polygon fill="none" points="1167.25,728,1160.6446,730.8928,1160.7742,738.1027,1167.3797,735.2099,1167.25,728" style="stroke:#181818;stroke-width:1.0;"/></g><!--MD5=[962acbf39c4510db4334526a55fa95cb]
reverse link BaseState to BaseAction--><g id="link_BaseState_BaseAction"><path codeLine="150" d="M1203.82,739.01 C1214.01,754.89 1225.88,773.41 1235.04,787.68 " fill="none" id="BaseState-backto-BaseAction" style="stroke:#181818;stroke-width:1.0;"/><polygon fill="none" points="1196.75,728,1196.6203,735.2099,1203.2258,738.1027,1203.3554,730.8928,1196.75,728" style="stroke:#181818;stroke-width:1.0;"/></g><!--MD5=[46597df12eae058579190c144721764e]
@startuml Operation R
package Application{
    class GameMain{
        -GameState _gameState
        -GameEvent _gameEvent
        -List<BaseSystem> _systemList
        -List<IPreUpdate> _preUpdateSystemList
        -List<IOnUpdate> _onUpdateSystemList
    }
}
class GameEvent{
    
}
class GameState{
    
}
package System{
    abstract BaseSystem{
        #GameState _gameState
        #GameEvent _gameEvent
        +Init(GameState, GameEvent)
        +SetEvent()
    }
    interface IPreUpdate{
        +PreUpdate()
    }
    interface IOnUpdate{
        +OnUpdate()
    }
    class GameRule{
        
    }
    class InputSystem{

    }
    class MoveSystem{

    }
    class CameraSystem{

    }
    class UISystem{

    }
    class CleaningSystem{

    }
    class AISystem{

    }
    class BatterySystem{

    }
    class GameSystem{

    }
    class ItemSystem{

    }
    class TimeSystem{

    }
    class LifeSystem{

    }
    class SoundSystem{
        
    }
}
package Entity{
    class PlayerEntity{
        
    }
    class DogEntity{

    }
    class DustEntity{

    }
    class CanvasEntity{
        
    }
}
package Component{
    class MoveComponent{

    }
    class AIComponent{
        
    }
    class CleaningComponent{

    }
    class UIComponent{
        
    }
    class StatusComponent{

    }
}
package Data{
    class BaseLogic{

    }
    class BaseAction{

    }
    class BaseState{
        
    }
}

BaseSystem <-up- GameMain
IPreUpdate <-up- GameMain
IOnUpdate <-up- GameMain

GameEvent -[hidden]le- BaseSystem
GameState -[hidden]le- BaseSystem
GameState -[hidden]up- GameEvent

GameState <-do- BaseSystem
GameEvent <- - BaseSystem

GameRule -[hidden]up- BaseSystem
ItemSystem -[hidden]up- BaseSystem
GameSystem -[hidden]up- BaseSystem
InputSystem -[hidden]up- BaseSystem
CameraSystem -[hidden]up- BaseSystem
UISystem -[hidden]up- GameRule
CleaningSystem -[hidden]up- GameRule
AISystem -[hidden]up- GameRule
SoundSystem -[hidden]up- GameRule
BatterySystem -[hidden]up- SoundSystem
LifeSystem -[hidden]up- SoundSystem
MoveSystem -[hidden]up- SoundSystem
TimeSystem -[hidden]up- SoundSystem

GameState o- - PlayerEntity
GameState o- - DogEntity
GameState o- - DustEntity
GameState o- - CanvasEntity

PlayerEntity o- - MoveComponent
PlayerEntity o- - StatusComponent
DogEntity o- - AIComponent
DustEntity o- - CleaningComponent
CanvasEntity o- - UIComponent

AIComponent o- - BaseState
BaseState o- - BaseLogic
BaseState o- - BaseAction

@enduml

PlantUML version 1.2022.7(Tue Aug 23 02:01:30 JST 2022)
(GPL source distribution)
Java Runtime: Java(TM) SE Runtime Environment
JVM: Java HotSpot(TM) 64-Bit Server VM
Default Encoding: MS932
Language: ja
Country: JP
--></g></svg>